<?xml version="1.0" encoding="UTF-8"?>
<svg version="1.1" xmlns="http://www.w3.org/2000/svg" width="2084" height="2084">
<path d="M0 0 C1.15764862 0.00060425 2.31529724 0.0012085 3.50802612 0.00183105 C85.98260722 0.11720669 167.94255485 9.87604579 248.125 29.1875 C248.86457947 29.36476624 249.60415894 29.54203247 250.3661499 29.72467041 C334.62230969 49.9574737 416.80768306 81.42007316 533.125 145.1875 C534.02105957 145.70908691 534.91711914 146.23067383 535.84033203 146.76806641 C550.04886476 155.0696507 563.74211052 164.13646225 577.4375 173.25 C578.32679199 173.8407431 579.21608398 174.43148621 580.13232422 175.04013062 C591.69483528 182.73135096 603.0720229 190.63196121 614.27706909 198.8354187 C616.67050493 200.58663127 619.07390043 202.32397661 621.4765625 204.0625 C630.31030376 210.50445197 638.91838886 217.148823 647.35546875 224.1015625 C650.93712446 227.05029675 654.58513462 229.90587171 658.25 232.75 C664.80446613 237.85872335 671.10574818 243.23251579 677.37939453 248.68017578 C679.10687975 250.17185322 680.84590215 251.64870526 682.58984375 253.12109375 C689.5490538 259.00754793 696.29865442 265.06950894 702.93237305 271.32104492 C706.02875784 274.23828319 709.1375661 277.11327067 712.375 279.875 C716.13510937 283.10378956 719.58790586 286.62314338 723.06616211 290.14794922 C725.6075653 292.71084883 728.18211543 295.16942847 730.9375 297.5 C739.34322101 304.69001756 747.21573722 312.7580678 754.35546875 321.19921875 C756.67272617 323.80293625 759.14521445 326.24047964 761.625 328.6875 C765.32908948 332.34742653 768.87787767 336.07693794 772.2578125 340.0390625 C774.15320841 342.21995738 776.1052652 344.34205746 778.07080078 346.4597168 C782.90200954 351.66642948 787.48561882 356.99917793 791.94140625 362.53515625 C794.11897068 365.18017637 796.37818763 367.71962525 798.6875 370.25 C802.24142208 374.1587026 805.5852216 378.17351283 808.8515625 382.32421875 C810.55603659 384.47091893 812.27757011 386.59447521 814.0234375 388.70703125 C821.23010316 397.44393263 828.06132486 406.39389068 834.73046875 415.546875 C837.30174324 419.07576257 839.91615421 422.56735039 842.56005859 426.04199219 C855.57684339 443.17700697 867.54995923 461.05622605 879.125 479.1875 C879.62451172 479.96512695 880.12402344 480.74275391 880.63867188 481.54394531 C897.58381654 507.93121546 913.09593508 535.18898842 927.46484375 563.05859375 C929.00770036 566.04920309 930.5667459 569.02569169 932.19140625 571.97265625 C939.19339133 584.70486712 945.14022162 597.95559111 951.125 611.1875 C951.41070862 611.81843567 951.69641724 612.44937134 951.99078369 613.09942627 C984.41326204 684.79659167 1008.53753875 760.05556022 1037.8125 926.75 C1037.95767059 928.00706253 1037.95767059 928.00706253 1038.10577393 929.28952026 C1042.18612959 965.02273189 1043.64357089 1000.92112464 1043.51611328 1036.86474609 C1043.49902324 1041.71699519 1043.50922796 1046.56874997 1043.52643585 1051.42098236 C1043.58875603 1072.22474355 1043.121671 1092.92627467 1041.7421875 1113.6875 C1041.68073925 1114.61345474 1041.619291 1115.53940948 1041.55598068 1116.49342346 C1035.0007366 1213.08026312 1014.38267632 1308.16853 966.125 1439.1875 C965.74018463 1440.10187836 965.74018463 1440.10187836 965.34759521 1441.034729 C949.45738809 1478.73766744 932.25383656 1516.09689741 911.67675781 1551.49414062 C910.07835791 1554.26845588 908.51530634 1557.06017358 906.9609375 1559.859375 C895.54802769 1580.39389385 882.94822692 1600.0776952 869.9375 1619.625 C869.44011322 1620.37300873 868.94272644 1621.12101746 868.43026733 1621.89169312 C858.68653626 1636.525895 848.74118479 1651.01255917 838 1664.9375 C837.32259766 1665.82091064 836.64519531 1666.70432129 835.94726562 1667.61450195 C834.61307186 1669.35362798 833.27752794 1671.09171932 831.94042969 1672.82861328 C830.34444691 1674.90236067 828.75291154 1676.97937968 827.1640625 1679.05859375 C822.23462047 1685.50301824 817.23152617 1691.88240063 812.125 1698.1875 C811.44050781 1699.03570313 810.75601562 1699.88390625 810.05078125 1700.7578125 C804.87991842 1707.12623602 799.5782563 1713.37313801 794.22265625 1719.5859375 C792.19755881 1721.93532976 790.1847527 1724.2942514 788.18359375 1726.6640625 C781.38039056 1734.70287081 774.30783235 1742.44088746 767.07495117 1750.09399414 C765.68090087 1751.59067391 764.30252896 1753.10201885 762.93481445 1754.62280273 C754.62146255 1763.84397622 745.8602102 1772.6040054 737.07202148 1781.37084961 C734.4290134 1784.0084693 731.79143019 1786.6514299 729.15429688 1789.29492188 C727.45344575 1790.9951126 725.75228466 1792.69499331 724.05078125 1794.39453125 C723.27350174 1795.17383499 722.49622223 1795.95313873 721.69538879 1796.75605774 C717.55441138 1800.87950727 713.33600026 1804.84794915 708.89880371 1808.65180969 C705.95478417 1811.20062738 703.14452257 1813.89078831 700.3125 1816.5625 C695.28811299 1821.26903274 690.13516609 1825.71608064 684.7578125 1830.01953125 C682.01530846 1832.27782463 679.4156241 1834.64531334 676.8125 1837.0625 C672.28436424 1841.22556682 667.58986729 1845.04964306 662.72802734 1848.80688477 C658.76816735 1851.87383515 654.89260927 1855.02304957 651.04980469 1858.23535156 C642.11958177 1865.69578282 632.89061882 1872.64530815 623.47070312 1879.47265625 C621.25005402 1881.09607833 619.05139889 1882.74445617 616.859375 1884.40625 C601.99002628 1895.6324397 586.41223305 1905.80978513 570.85534668 1916.04760742 C568.60118411 1917.5325718 566.3516835 1919.0245461 564.1015625 1920.515625 C544.67940459 1933.3113726 524.47697034 1944.94533071 504.125 1956.1875 C502.63226562 1957.01217773 502.63226562 1957.01217773 501.109375 1957.85351562 C425.12550951 1999.65428426 344.00442425 2031.25797004 139.19140625 2076.15625 C138.04930191 2076.3149482 138.04930191 2076.3149482 136.88412476 2076.47685242 C133.5828542 2076.92098977 130.46476193 2077.1875 127.125 2077.1875 C127.125 1840.5775 127.125 1603.9675 127.125 1360.1875 C220.185 1360.1875 313.245 1360.1875 409.125 1360.1875 C409.455 1357.2175 409.785 1354.2475 410.125 1351.1875 C410.51943974 1348.75034978 410.94040505 1346.31734207 411.38798523 1343.88938904 C411.51213267 1343.21104765 411.63628011 1342.53270626 411.7641896 1341.83380908 C412.17662934 1339.58452582 412.59355551 1337.33609905 413.01049805 1335.08764648 C413.31060355 1333.45620854 413.61042778 1331.82471884 413.90999508 1330.19318199 C414.7269403 1325.74827455 415.54779155 1321.30409627 416.3692956 1316.86002946 C417.24572562 1312.11485646 418.11843243 1307.36899873 418.99154663 1302.62321472 C420.48537353 1294.50627273 421.9814042 1286.38973962 423.47903442 1278.27349854 C425.81168262 1265.63190818 428.14049765 1252.98961352 430.46850586 1240.34716797 C431.24634234 1236.12322799 432.02419399 1231.8992908 432.80204773 1227.675354 C432.994336 1226.63115295 433.18662427 1225.5869519 433.38473946 1224.5111084 C434.5517232 1218.17414514 435.71909736 1211.83725394 436.88678104 1205.50041962 C441.55237596 1180.18084381 446.20685276 1154.85928396 450.83816981 1129.53341508 C451.36915395 1126.62995752 451.90032052 1123.72653335 452.43148345 1120.82310849 C454.7135128 1108.34887001 456.99400124 1095.87435226 459.2702446 1083.39905643 C460.11947451 1078.74719247 460.97040771 1074.09564133 461.82182693 1069.44417763 C462.20864513 1067.32864122 462.59468226 1065.21296182 462.97986984 1063.09712791 C463.49512112 1060.26702672 464.01297143 1057.43741349 464.53149414 1054.60791016 C464.7546708 1053.37627467 464.7546708 1053.37627467 464.98235607 1052.11975765 C465.54550464 1049.05918558 466.13944488 1046.14416537 467.125 1043.1875 C354.925 1043.1875 242.725 1043.1875 127.125 1043.1875 C127.125 820.4875 127.125 820.4875 166.125 767.1875 C166.7334375 766.33671875 167.341875 765.4859375 167.96875 764.609375 C199.0356318 723.45938244 248.58254326 706.8968135 297.84375 699.99609375 C322.20646732 696.77183572 346.69767153 695.99322627 371.25 696.0625 C372.24480377 696.0640509 373.23960754 696.06560181 374.26455688 696.06719971 C403.35847437 696.11952535 432.44731149 696.57260512 461.5 698.1875 C462.25566254 698.22929382 463.01132507 698.27108765 463.78988647 698.31414795 C470.62665266 698.70012868 477.33423541 699.21739077 484.125 700.1875 C484.125 605.1475 484.125 510.1075 484.125 412.1875 C481.485 411.8575 478.845 411.5275 476.125 411.1875 C473.70350389 410.74024359 471.28672476 410.26678913 468.875 409.76953125 C467.46953422 409.4842065 466.06392837 409.19957106 464.65820312 408.91552734 C463.922229 408.76637878 463.18625488 408.61723022 462.42797852 408.46356201 C418.7251371 399.6667031 374.4681051 394.56312206 330.0625 390.9375 C329.04600372 390.85441589 328.02950745 390.77133179 326.98220825 390.68572998 C320.36555577 390.15035922 313.7468795 389.65356543 307.125 389.1875 C306.36406036 389.13201996 305.60312073 389.07653992 304.81912231 389.01937866 C288.301523 387.84651093 271.73733416 387.98693467 255.1875 388 C254.05323767 388.00040031 254.05323767 388.00040031 252.89606094 388.00080872 C229.91924016 388.01099063 207.02914183 388.18285444 184.125 390.1875 C183.00738281 390.28224609 183.00738281 390.28224609 181.8671875 390.37890625 C114.16045062 396.12440306 47.41054353 409.25726526 -14.875 437.1875 C-16.27419678 437.81374268 -16.27419678 437.81374268 -17.70166016 438.45263672 C-44.8755615 450.73179164 -70.7002496 466.38909731 -93.875 485.1875 C-94.78636719 485.90808594 -95.69773437 486.62867188 -96.63671875 487.37109375 C-114.16450229 501.39832137 -131.13485733 517.41657747 -144.875 535.1875 C-145.78582026 536.30083746 -146.70012221 537.41133222 -147.6171875 538.51953125 C-202.325014 604.95432352 -228.49253665 690.27902932 -246.625 832.0625 C-246.68425659 832.8826358 -246.74351318 833.70277161 -246.80456543 834.54776001 C-248.70329112 861.39656802 -249.05219436 888.25161023 -249.17891693 915.15448761 C-249.198928 919.23179463 -249.22365365 923.30906858 -249.2479248 927.38635254 C-249.31571778 939.21587622 -249.37618676 951.04544096 -249.4375 962.875 C-249.581875 989.378125 -249.72625 1015.88125 -249.875 1043.1875 C-320.825 1043.1875 -391.775 1043.1875 -464.875 1043.1875 C-464.875 1147.7975 -464.875 1252.4075 -464.875 1360.1875 C-393.925 1360.1875 -322.975 1360.1875 -249.875 1360.1875 C-249.875 1589.2075 -249.875 1818.2275 -249.875 2054.1875 C-270.62367633 2049.57668304 -270.62367633 2049.57668304 -277.3359375 2047.59375 C-278.12266342 2047.36577728 -278.90938934 2047.13780457 -279.71995544 2046.90292358 C-282.23215489 2046.17167304 -284.74129526 2045.43064444 -287.25 2044.6875 C-288.12707611 2044.42938538 -289.00415222 2044.17127075 -289.9078064 2043.90533447 C-307.71271842 2038.65736425 -325.33810391 2032.92982037 -342.88323975 2026.8737793 C-344.78762714 2026.21760512 -346.69382179 2025.56668313 -348.60009766 2024.91601562 C-386.39071379 2011.98422192 -423.03805933 1995.76788599 -458.875 1978.1875 C-460.08801596 1977.59464997 -461.30107048 1977.00187885 -462.51416016 1976.40917969 C-478.32368152 1968.67434904 -493.85789195 1960.60770523 -509.09521484 1951.78466797 C-511.96370924 1950.13653075 -514.8478377 1948.51946121 -517.73828125 1946.91015625 C-529.19760797 1940.52415668 -540.40320532 1933.86804094 -551.42675781 1926.75732422 C-554.02158841 1925.09350683 -556.63012701 1923.45302978 -559.2421875 1921.81640625 C-570.92292696 1914.48148611 -582.3192026 1906.8345234 -593.55371094 1898.83398438 C-595.74838809 1897.2773055 -597.95339131 1895.73697652 -600.1640625 1894.203125 C-610.85023778 1886.77100591 -621.20735707 1878.93827558 -631.52050781 1870.99853516 C-633.58006511 1869.41435888 -635.64392053 1867.83613925 -637.7109375 1866.26171875 C-647.39068031 1858.87917139 -656.7664934 1851.16037524 -666.03686523 1843.27368164 C-669.46521372 1840.36174562 -672.93465337 1837.50993757 -676.4375 1834.6875 C-681.51539439 1830.55708445 -686.32063853 1826.17918232 -691.1171875 1821.73046875 C-693.27840548 1819.73761761 -695.45846969 1817.79042215 -697.6875 1815.875 C-707.03725713 1807.75496041 -715.97948201 1799.16676038 -724.67578125 1790.35546875 C-727.32888836 1787.74006121 -730.11690846 1785.32121245 -732.94140625 1782.89453125 C-737.6422449 1778.74449794 -741.99477244 1774.2690599 -746.0625 1769.5 C-749.31932797 1765.70411085 -752.82135682 1762.20154687 -756.375 1758.6875 C-760.41419926 1754.68856796 -764.33221615 1750.66891397 -768.01171875 1746.33203125 C-770.01595855 1744.02526469 -772.08841257 1741.79447697 -774.17431641 1739.56176758 C-779.24905932 1734.12926079 -784.08240797 1728.59009671 -788.73828125 1722.7890625 C-790.83382494 1720.23763271 -793.01463155 1717.80423227 -795.25 1715.375 C-799.23008466 1711.00241564 -802.88847497 1706.44580709 -806.50952148 1701.77758789 C-809.51028782 1697.91192218 -812.56461153 1694.09842864 -815.66894531 1690.31542969 C-827.35908879 1676.06915264 -838.17666647 1661.18693681 -848.875 1646.1875 C-849.71417969 1645.0121167 -849.71417969 1645.0121167 -850.5703125 1643.81298828 C-860.04321275 1630.50929475 -869.07734538 1616.94618682 -877.875 1603.1875 C-878.4952002 1602.21796387 -879.11540039 1601.24842773 -879.75439453 1600.24951172 C-894.48377963 1577.14060668 -908.02989957 1553.38947828 -920.875 1529.1875 C-921.41946777 1528.1670459 -921.96393555 1527.1465918 -922.52490234 1526.09521484 C-950.92205251 1472.73772329 -973.77638387 1416.81788606 -992.20300293 1359.27978516 C-992.84281907 1357.28769639 -993.48916038 1355.2978585 -994.13769531 1353.30859375 C-1021.07962966 1270.16357352 -1034.75061722 1183.25969817 -1039.875 1096.1875 C-1039.98303955 1094.41971191 -1039.98303955 1094.41971191 -1040.09326172 1092.61621094 C-1045.63647387 997.60231986 -1035.95069819 900.80955586 -988.55480957 714.24517822 C-987.91148971 712.29794869 -987.27345606 710.34897503 -986.63574219 708.39990234 C-972.198078 664.45683716 -953.94499844 621.94702594 -933.50244141 580.48925781 C-931.92365217 577.28620566 -930.35774073 574.07710499 -928.79296875 570.8671875 C-922.47719203 557.98975189 -915.66417948 545.46930097 -908.50732422 533.04199219 C-906.88104815 530.19807658 -905.28202374 527.34055521 -903.69140625 524.4765625 C-886.12900281 492.89821761 -866.14484941 462.40194511 -844.875 433.1875 C-844.04911377 432.04933838 -844.04911377 432.04933838 -843.20654297 430.88818359 C-836.06130995 421.05881457 -828.7732954 411.3658484 -821.20166016 401.86132812 C-819.83665981 400.13912673 -818.48504984 398.40715176 -817.13671875 396.671875 C-812.17288962 390.29043596 -807.11257707 384.01899817 -801.859375 377.87304688 C-798.97588109 374.499359 -796.15862156 371.08223817 -793.375 367.625 C-789.24809794 362.55142507 -784.87397442 357.75008858 -780.4296875 352.95703125 C-778.37386278 350.72831607 -776.35883043 348.47982081 -774.375 346.1875 C-770.15531164 341.33087754 -765.80192045 336.59811629 -761.43359375 331.87548828 C-760.40256762 330.75886631 -759.37387963 329.64008046 -758.34765625 328.51904297 C-749.45659923 318.81038563 -740.23533473 309.44175692 -730.9375 300.125 C-730.35145996 299.53637177 -729.76541992 298.94774353 -729.16162109 298.34127808 C-717.61447074 286.75390994 -717.61447074 286.75390994 -711.50756836 281.60571289 C-709.70928757 280.04354553 -708.04247572 278.38787503 -706.375 276.6875 C-703.40764677 273.67336418 -700.30154708 270.88832667 -697.09765625 268.12890625 C-694.54523117 265.89945939 -692.05612486 263.60748618 -689.5625 261.3125 C-685.09977168 257.24209944 -680.51242 253.38573091 -675.8125 249.59375 C-672.51145806 246.889705 -669.28754385 244.10617139 -666.0625 241.3125 C-659.73423409 235.85005238 -653.2238193 230.66076967 -646.61621094 225.54199219 C-644.88545643 224.19563408 -643.16395475 222.83833893 -641.4453125 221.4765625 C-633.37371493 215.0832974 -625.20347731 208.83326471 -616.92724609 202.70703125 C-615.59760536 201.72253399 -614.26969096 200.73569917 -612.94384766 199.74609375 C-591.09427344 183.46841045 -568.10643973 168.4136987 -544.875 154.1875 C-544.10043457 153.71231934 -543.32586914 153.23713867 -542.52783203 152.74755859 C-529.15844276 144.57334691 -515.5714239 136.79891975 -501.875 129.1875 C-500.9586377 128.67638672 -500.04227539 128.16527344 -499.09814453 127.63867188 C-471.10385829 112.0735903 -442.34223185 97.74699667 -412.875 85.1875 C-412.1618866 84.88326111 -411.44877319 84.57902222 -410.71405029 84.26556396 C-385.762709 73.64318405 -360.52997695 63.97343221 -334.875 55.1875 C-334.15306458 54.93997986 -333.43112915 54.69245972 -332.68731689 54.43743896 C-249.37478965 25.95429945 -162.18869196 8.98545156 0 0 Z " fill="#FFFFFF" transform="translate(1040.875,-0.1875)"/>
</svg>
